<?xml version="1.0"?>
<svg version="1.1" xmlns="http://www.w3.org/2000/svg" width="160" height="60" style=""><path fill="#1ab841" d="M27.7,35.52l0,4.28s-2.12,1.2-5.1,1.2c-4,0-6.4-2.4-6.4-6.9c0-4.6,2.6-7.5,6.7-7.5c2.2,0,4.5,1,4.5,1l-0.1,3.3l-1.3,0l-0.6-2.2s-1.2-0.4-2.7-0.4c-2.7,0-4.2,2-4.2,5.7c0,3.6,1.8,5.3,4.4,5.3c1.4,0,2.8-0.5,2.8-0.5l0-3.28l-1.7-0.4l0-1.1l5.2-0.1l0,1.2z M35.472,30.2l0.18,1.46c0.5-0.56,1.66-1.66,3.02-1.66c1,0,1.8,0.3,1.8,0.3l-0.1,2.9l-1.3,0l-0.3-1.5c-1.5,0-2.46,0.98-2.9,1.56l0,5.94l2,0.5l0,1.1l-5.7,0l0-1.1l1.7-0.5l0-7.4l-1.7-0.4l0-1.1z M51.844,35.8l-6.9,0c0,2.2,1.18,3.6,2.9,3.6c2,0,3.36-1.1,3.36-1.1l0.7,1.04s-1.86,1.66-4.26,1.66c-3.2,0-4.8-2.1-4.8-5.4c0-3.2,2-5.6,4.9-5.6s4.2,1.7,4.2,4.7c0,0.5-0.1,1.06-0.1,1.1z M45.024,34.3l4.8,0c0-1.5-0.58-2.74-2.18-2.74s-2.5,1.24-2.62,2.74z M64.016,35.8l-6.9,0c0,2.2,1.18,3.6,2.9,3.6c2,0,3.36-1.1,3.36-1.1l0.7,1.04s-1.86,1.66-4.26,1.66c-3.2,0-4.8-2.1-4.8-5.4c0-3.2,2-5.6,4.9-5.6s4.2,1.7,4.2,4.7c0,0.5-0.1,1.06-0.1,1.1z M57.196,34.3l4.8,0c0-1.5-0.58-2.74-2.18-2.74s-2.5,1.24-2.62,2.74z M70.488,30.2l0.18,1.42c0.48-0.42,2.06-1.62,3.72-1.62c2.2,0,3.2,1.4,3.2,3.6l0,5.6l1.5,0.5l0,1.1l-4.8,0l0-1.1l1.3-0.5l0-5.4c0-1.4-0.5-2.1-1.8-2.1c-1.7,0-2.9,1.6-2.9,1.6l0,5.9l1.3,0.5l0,1.1l-5,0l0-1.1l1.7-0.5l0-7.4l-1.7-0.4l0-1.1z M83.56,39.2l0-10.8l-1.7-0.4l0-1.1l3.7-0.1l2.3,0c2.5,0,4.3,1.1,4.3,3.5c0,1.8-0.92,2.82-2.6,3.24c2.1,0.48,3.1,1.66,3.1,3.26c0,2.8-1.8,4-5.1,4l-5.7,0l0-1.2z M85.56,32.8l1.5,0c1.8,0,3-0.7,3-2.3c0-1.4-1-2.1-2.3-2.1l-2.2,0l0,4.4z M85.56,39.2l2.1,0c1.9,0,2.9-0.8,2.9-2.3c0-2-1.3-2.6-3.5-2.6l-1.5,0l0,4.9z M101.072,39.7l0,1.1l-5.54,0l0-1.1l1.7-0.5l0-12.2l-1.7-0.4l0-1.1l3.74-0.1l0,13.8z M108.444,30c3,0,4.7,2.1,4.7,5.3c0,3.4-2,5.7-5,5.7s-4.8-1.8-4.8-5.4c0-3.4,2.1-5.6,5.1-5.6z M108.344,31.6c-2,0-2.9,1.3-2.9,3.9c0,2.4,0.8,3.9,2.8,3.9s2.8-1.4,2.8-4c0-2.2-0.7-3.8-2.7-3.8z M123.316,33.5l-0.3-1.7s-0.8-0.2-1.8-0.2c-1.9,0-3,1.2-3,3.7c0,2.7,1.2,4.1,3.1,4.1s3.1-1.2,3.1-1.2l0.7,1.2s-1.8,1.6-4,1.6c-3.3,0-5-2.1-5-5.5c0-3.2,2-5.5,5.2-5.5c1.8,0,3.4,0.8,3.4,0.8l-0.1,2.7l-1.3,0z M132.788,34.2l1.5-2.52l-0.9-0.28l0-1.1l4.4-0.1l0,1.2l-1.42,0.24l-0.02,0l-2.06,3.06l2.58,4.5l0.02,0l1.5,0.5l0,1.1l-2.7,0l-2.86-5.1l-1.74,0l0,3.5l1.3,0.5l0,1.1l-5,0l0-1.1l1.7-0.5l0-12.2l-1.7-0.4l0-1.1l3.7-0.1l0,8.8l1.7,0z"/><path fill="#" d=""/></svg>
